<?xml version="1.0" encoding="utf-8"?>
<!-- Generator: Adobe Illustrator 22.0.0, SVG Export Plug-In . SVG Version: 6.00 Build 0)  -->
<svg version="1.1"
	 id="svg2" inkscape:output_extension="org.inkscape.output.svg.inkscape" inkscape:version="0.46+pre4" sodipodi:docname="signed-document-contract.svg" sodipodi:version="0.32" xmlns:cc="http://creativecommons.org/ns#" xmlns:dc="http://purl.org/dc/elements/1.1/" xmlns:inkscape="http://www.inkscape.org/namespaces/inkscape" xmlns:rdf="http://www.w3.org/1999/02/22-rdf-syntax-ns#" xmlns:sodipodi="http://sodipodi.sourceforge.net/DTD/sodipodi-0.dtd" xmlns:svg="http://www.w3.org/2000/svg"
	 xmlns="http://www.w3.org/2000/svg" xmlns:xlink="http://www.w3.org/1999/xlink" x="0px" y="0px" viewBox="0 0 337 428.1"
	 style="enable-background:new 0 0 337 428.1;" xml:space="preserve">
<style type="text/css">
	.st0{fill:#0093D1;stroke:#000000;}
	.st1{fill:#0093D1;stroke:#000000;stroke-linecap:round;stroke-linejoin:round;}
	.st2{fill:#0093D1;stroke:#000000;stroke-width:0.531;stroke-dasharray:2.1241,2.1241;}
</style>
<defs>
	
	
		<inkscape:perspective  id="perspective10" inkscape:persp3d-origin="372.04724 : 350.78739 : 1" inkscape:vp_x="0 : 526.18109 : 1" inkscape:vp_y="0 : 1000 : 0" inkscape:vp_z="744.09448 : 526.18109 : 1" sodipodi:type="inkscape:persp3d">
		</inkscape:perspective>
</defs>
<sodipodi:namedview  bordercolor="#666666" borderopacity="1.0" gridtolerance="10000" guidetolerance="10" id="base" inkscape:current-layer="layer1" inkscape:cx="421.07072" inkscape:cy="203.67929" inkscape:document-units="px" inkscape:pageopacity="0.0" inkscape:pageshadow="2" inkscape:window-height="1001" inkscape:window-width="1680" inkscape:window-x="-4" inkscape:window-y="-4" inkscape:zoom="0.98994949" objecttolerance="10" pagecolor="#ffffff" showgrid="false">
	</sodipodi:namedview>
<g id="layer1" transform="translate(-212.081,-353.29075)" inkscape:groupmode="layer" inkscape:label="Layer 1">
	<path id="path2383" sodipodi:nodetypes="cczzccczzcczzczzc" class="st0" d="M541.4,780.9l-324.3-2.9c0,0,16.9-84.5,14.3-122.9
		c-2.6-38.4-16.5-86-18.6-128.6c-2.1-42.6,8.6-150,8.6-150l312.9-22.9l-307,30.9c0,0-5.8,97.6-3.9,139.4
		c1.9,41.9,14.3,97.9,16,135.4s-14.1,110.1-14.1,110.1l305.5,1.4c0,0,9.2-54.8,9.6-94.3c0.4-39.5-13.9-120.2-13.9-167.9
		c0-47.7,12.1-149,12.1-149s-6,101.4-4.7,149c1.3,47.6,14.4,126.9,14.7,167.8S541.4,780.9,541.4,780.9z"/>
	<path id="path2385" class="st0" d="M303.6,425.9l5.7-22.1l4.3,19.3l13.6-21.4l11.4,17.9l13.6-9.3l16.4,3.6l17.9-12.9l16.4,0.7
		l6.4,7.1l17.9-10l38.6,2.1h-37.9l-20,11.4l-7.1-7.1l-13.6-1.4l-16.4,13.6l-17.9-3.6l-15.7,11.4l-10-15.7l-12.9,18.6l-5.7-12.1
		L303.6,425.9z"/>
	<path id="path2387" class="st0" d="M261.9,464.1l-0.1,6.4l236.7-11.8L261.9,464.1z"/>
	<path id="path2389" class="st0" d="M250.5,529.6l-0.1,6.4l236.7-11.8L250.5,529.6z"/>
	<path id="path2391" class="st0" d="M256.2,617.6l-0.1,6.4l236.7-11.8L256.2,617.6z"/>
	<path id="path2393" class="st0" d="M260.5,699.8l-0.1,6.4l236.7-11.8L260.5,699.8z"/>
	<path id="path2395" class="st0" d="M250.4,493.2l-0.1,6.4l236.7-11.8L250.4,493.2z"/>
	<path id="path2397" class="st0" d="M246.3,570.3l-0.1,6.4l236.7-11.8L246.3,570.3z"/>
	<path id="path2399" class="st0" d="M253.3,660.4l-0.1,6.4L489.9,655L253.3,660.4z"/>
	<path id="path2403" class="st1" d="M432.5,727.4c-0.8,1.3-1.2,2.9-1.5,4.4c0,0.6-0.1,1.5,0.6,1.8c0.5,0.2,0.7,0.1,1.2,0
		c1.9-0.9,3.4-2.3,4.9-3.7c1.6-1.7,3.2-3.4,4.9-5.1c1.4-1.5,2.4-3.2,3.2-5c0.2-0.6,0.6-2-0.2-2.3c-0.3-0.1-0.7,0.1-0.9,0.2
		c-1.3,0.9-1.8,2.4-2.3,3.8c-0.8,2.4-0.9,5-1,7.6c0,1.1-0.1,2.1,0,3.2c0.1,0.5,0.1,1,0.4,1.4c0.1,0.2,0.3,0.3,0.5,0.4
		c0.3,0,0.5,0.1,0.8,0c1.8-0.3,3.4-2,4.6-3.3c0.4-0.4,1.3-1.7,2.1-1.5c0.5,0.1,0.9,1.7,1.1,2.1c0.3,0.8,0.5,1.8,1.5,2.1
		c1.1,0.4,2.2-0.1,3.2-0.5c0.3-0.1,0.7-0.2,1-0.3c1-0.3,1.1-0.3,2.1-0.8c1-0.5,2-1.2,2.9-1.8c1.1-0.7,2.3-1,3.5-1.4
		c1.5-0.5,0.2-0.1,1.7-0.5c0.2,0,0.5,0,0.7,0c0.7,0.1,1.2,0.7,1.9,0.9c0.9,0.3,1.4,0.2,2.3,0.2c1.8-0.2,3.6-0.2,5.4-0.3
		c1.2,0,1.6-0.1,2.8-0.2c1.1-0.2,2.2-0.5,3.4-0.3c0.7,0.1,0.8,0.3,1.4,0.4c0.3,0,0.5,0,0.8,0.1c0.3-0.1,0.6-0.1,0.9-0.2
		c0.4-0.1,0.7-0.2,1-0.3c1-0.4,2.1-1.1,3.2-1c0.3,0,0.6,0.2,0.9,0.3c1.1,0.4,1.4,1.7,2.5,2.1c0.6,0.2,0.9,0.1,1.6-0.1
		c1.2-0.4,2.1-1.1,3.3-1.4c0.6-0.1,1-0.1,1.6-0.1c1,0.1,2.1,0.1,3.1,0c0,0-0.2,0.2-0.2,0.2l0,0c-1,0.1-2.1,0.1-3.1,0
		c-0.6,0-1,0-1.5,0.1c-1.2,0.3-2.2,1-3.3,1.4c-0.7,0.1-0.9,0.3-1.6,0c-1.1-0.4-1.4-1.7-2.5-2.1c-0.3-0.1-0.6-0.3-0.9-0.3
		c-1.1-0.1-2.2,0.7-3.2,1c-0.3,0.1-0.7,0.2-1,0.3c-0.3,0.1-0.6,0.1-0.9,0.2c-0.3,0-0.5,0-0.8-0.1c-0.7-0.1-0.8-0.3-1.4-0.4
		c-1.1-0.2-2.2,0.1-3.4,0.3c-1.2,0.1-1.6,0.2-2.8,0.2c-1.8,0.1-3.6,0-5.4,0.3c-0.9,0-1.5,0-2.3-0.3c-0.7-0.2-1.2-0.8-1.8-0.9
		c-0.2,0-0.5,0-0.7,0c-1.5,0.4-0.1,0-1.7,0.5c-1,0.4-2.1,0.6-3.1,1.1c-1.1,0.7-2.2,1.5-3.4,2.1c-0.9,0.5-1.1,0.5-2.1,0.8
		c-0.3,0.1-0.7,0.2-1,0.3c-1,0.3-2.2,0.8-3.2,0.5c-0.9-0.3-1.2-1.3-1.5-2.1c-0.2-0.7-0.4-1.6-1-2.1c-0.1-0.1-0.2-0.1-0.3-0.1
		c-0.5,0.2-1.1,1-1.4,1.3c-1,1-1.8,1.9-3,2.6c-0.6,0.4-1.3,0.8-2,0.9c-0.3,0-0.5,0-0.8,0c-0.2-0.1-0.4-0.2-0.5-0.4
		c-0.3-0.4-0.4-1-0.4-1.5c-0.1-1.1-0.1-2.1,0-3.2c0.1-2.5,0.3-5.1,1-7.6c0.4-1.1,0.8-2.3,1.5-3.2c0.4-0.4,0.7-0.6,1.2-0.9
		c0.3-0.1,0.6-0.3,1-0.1c0.9,0.4,0.4,1.7,0.3,2.4c-0.8,1.8-1.8,3.6-3.2,5c-1.6,1.7-3.2,3.4-4.9,5.1c-1.6,1.5-3.3,3.1-5.3,4
		c-0.5,0.1-0.8,0.2-1.2,0c-0.7-0.3-0.7-1.2-0.6-1.9c0.3-1.5,0.7-3.1,1.5-4.4C432.2,727.5,432.5,727.4,432.5,727.4z"/>
	<path id="path3175" class="st2" d="M428.9,737.6l75.6-1.6"/>
	<path id="path3221" class="st1" d="M282.5,724.2c-1.7,2.4-2.9,5-3.9,7.7c-0.5,1.8-1.4,4.5-0.2,6.2c0.2,0.2,0.4,0.4,0.6,0.6
		c0.3,0.2,0.5,0.4,0.8,0.5c2.3,0.8,5.3-0.7,7.3-1.8c2.9-1.8,4.1-3.8,5.1-7c0.3-1.1,0.7-2.9-0.7-3.6c-0.6-0.3-0.9-0.1-1.5,0.1
		c-0.3,0.1-0.5,0.3-0.8,0.4c-0.2,0.1-0.3,0.3-0.4,0.5c-1,1.2-1.8,2.4-2.5,3.8c-0.7,2.1-1.3,4.3-1.1,6.5c0,0.4,0.1,0.8,0.2,1.1
		c0.2,0.8,0.3,1.3,0.8,1.9c0.7,0.9,2,1.4,3.2,1.4c0.6,0,1.3-0.2,1.9-0.3c3.4-0.8,6.5-2.4,9.1-4.8c1.7-1.6,2.1-2.4,3.5-4.4
		c1.4-2.2,2.8-4.5,3.8-7c0.2-0.5,0.9-2,0.7-2.8c0-0.2-0.3-0.2-0.4-0.3c-0.3,0.1-0.5,0.2-0.8,0.4c-0.4,0.3-1.8,2.1-1.9,2.3
		c-1.4,2.1-2.3,4.2-3.2,6.5c-0.5,1.8-1.3,4.1-1.2,6.1c0,0.5,0.1,1,0.3,1.4c0.8,1,2.2,0.5,3.1,0.4c3.2-1,6-2.6,8.8-4.4
		c0.5-0.3,4-2.7,4.8-3.1c0.5-0.3,1.1-0.5,1.6-0.7c0.2,0.1,0.5,0.1,0.7,0.3c0.5,0.7-0.2,2.2-0.2,2.9c0,0.1,0,0.4,0.1,0.4
		c0.2,0.1,0.4-0.1,0.5-0.2c0.9-0.7,1.6-1.9,2.8-2.1c0,0,0.8,0.3,0.8,0.3c0.2,0,0.4-0.1,0.6-0.1c0.4-0.2,1.5-0.8,1.8-1
		c0.8-0.4,1.6-0.7,2.5-0.8c0.2,0,0.4,0,0.6,0c0,0-0.3,0.2-0.3,0.2l0,0c-0.2,0-0.4,0-0.6,0c-0.9,0.2-1.7,0.4-2.5,0.8
		c-0.4,0.2-1.4,0.8-1.8,1c-0.2,0.1-0.4,0.1-0.6,0.1c-0.1,0-0.9-0.3-1-0.3c-1,0.6-1.6,1.7-2.6,2.1c-0.2,0.1-0.4,0.2-0.6,0.2
		c-0.1-0.1-0.1-0.3-0.1-0.4c0-0.7,0.7-2.2,0.3-2.9c-0.1-0.2-0.4-0.2-0.6-0.2c-0.3,0.1-0.7,0.2-1,0.4c-0.8,0.4-4.3,2.8-4.8,3.1
		c-3,1.9-6,3.7-9.4,4.7c-0.9,0.1-2.4,0.6-3.2-0.4c-0.3-0.4-0.3-0.9-0.3-1.4c-0.1-1.9,0.7-4.3,1.2-6.1c1.3-3.2,2.8-7,5.7-9.1
		c0.2-0.2,0.5-0.3,0.8-0.4c0.1,0.1,0.4,0.2,0.4,0.3c0.2,0.8-0.5,2.3-0.7,2.8c-1,2.4-2.4,4.7-3.8,7c-1.4,1.9-1.8,2.7-3.5,4.4
		c-2.7,2.6-6.1,4.3-9.7,5.1c-0.6,0.1-1.3,0.3-1.9,0.3c-1.2,0-2.4-0.5-3.2-1.4c-0.5-0.6-0.6-1.2-0.8-1.9c-0.1-0.4-0.1-0.8-0.2-1.2
		c-0.1-2.2,0.4-4.5,1.1-6.5c1-2,2.3-4.1,4.4-5.1c0.6-0.1,0.9-0.3,1.5-0.1c1.3,0.7,1,2.5,0.7,3.6c-1.1,3.6-2.4,5.5-5.7,7.4
		c-2,1-4.9,2.6-7.3,1.7c-0.3-0.1-0.6-0.3-0.9-0.5c-0.2-0.2-0.5-0.4-0.6-0.7c-1.2-1.7-0.3-4.4,0.2-6.2c1-2.7,2.2-5.4,3.9-7.7
		C282.1,724.4,282.5,724.2,282.5,724.2z"/>
	<path id="path3223" class="st2" d="M265.7,740.3l75.6-1.6"/>
</g>
</svg>
