<svg id="Capa_1" data-name="Capa 1" xmlns="http://www.w3.org/2000/svg" viewBox="0 0 512 512"><defs><style>.cls-1{fill:#f4d00c;}.cls-2{fill:#0093d1;}</style></defs><title>wall-clock</title><circle class="cls-1" cx="174.54" cy="116.36" r="11.64"/><circle class="cls-1" cx="337.5" cy="395.68" r="11.64"/><circle class="cls-1" cx="116.36" cy="174.54" r="11.64"/><circle class="cls-1" cx="395.63" cy="337.47" r="11.64"/><circle class="cls-1" cx="337.45" cy="116.32" r="11.64"/><circle class="cls-1" cx="174.53" cy="395.65" r="11.64"/><circle class="cls-1" cx="395.63" cy="174.54" r="11.64"/><circle class="cls-1" cx="116.36" cy="337.44" r="11.64"/><path class="cls-2" d="M256,0C115.2,0,0,115.2,0,256S115.2,512,256,512c7,0,11.64-4.65,11.64-11.64S263,488.73,256,488.73C128,488.73,23.27,384,23.27,256S128,23.27,256,23.27,488.73,128,488.73,256A232,232,0,0,1,300.22,484.07a12.07,12.07,0,0,0-9.31,14c1.16,7,7,10.47,14,9.31C424.73,484.07,512,378.18,512,256,512,115.2,396.8,0,256,0Z"/><path class="cls-1" d="M304.87,52.36c-5.82-1.16-12.8,2.33-14,8.15s2.33,12.8,8.14,14A188.26,188.26,0,0,1,442.18,244.36H418.91c-7,0-11.64,4.66-11.64,11.64s4.66,11.64,11.64,11.64H441A185.52,185.52,0,0,1,267.64,441V418.91c0-7-4.66-11.64-11.64-11.64s-11.64,4.66-11.64,11.64V441A185.52,185.52,0,0,1,71,267.64H93.09c7,0,11.64-4.66,11.64-11.64s-4.66-11.64-11.64-11.64H69.82c5.82-93.09,81.45-168.72,174.54-174.54V93.09c0,7,4.66,11.64,11.64,11.64s11.64-4.66,11.64-11.64V58.18c0-7-4.66-11.63-11.64-11.63C140.8,46.54,46.54,140.8,46.54,256S140.8,465.45,256,465.45,465.45,371.2,465.45,256C465.45,159.42,399.13,75.64,304.87,52.36Z"/><path class="cls-1" d="M357.24,341l-69.82-69.82A32.32,32.32,0,0,0,290.91,256a33.89,33.89,0,0,0-23.27-32.58V162.91c0-7-4.66-11.64-11.64-11.64s-11.64,4.66-11.64,11.64v60.51A33.89,33.89,0,0,0,221.09,256c0,19.78,15.13,34.91,34.91,34.91a32.32,32.32,0,0,0,15.13-3.49l69.81,69.82a11.26,11.26,0,0,0,16.3,0A11.26,11.26,0,0,0,357.24,341ZM256,267.64c-7,0-11.64-4.66-11.64-11.64S249,244.36,256,244.36,267.64,249,267.64,256,263,267.64,256,267.64Z"/></svg>