<svg xmlns="http://www.w3.org/2000/svg" viewBox="0 0 584.12 475.66"><defs><style>.cls-1{fill:#fff;stroke:#000;stroke-miterlimit:10;stroke-width:5px;}.cls-2{fill:#f4d00c;}.cls-3{fill:#0093d1;}</style></defs><title>Asset 1</title><g id="Layer_2" data-name="Layer 2"><g id="Capa_1" data-name="Capa 1"><rect class="cls-1" x="2.5" y="2.5" width="579.12" height="470.66" rx="59.02" ry="59.02"/><circle class="cls-2" cx="315.33" cy="331.3" r="11.64"/><circle class="cls-3" cx="117.52" cy="401.11" r="11.64"/><path class="cls-2" d="M513.15,28.75H117.52c-19.79,0-34.91,15.13-34.91,34.91V180c0,7,4.65,11.63,11.63,11.63S105.88,187,105.88,180V63.67c0-7,4.65-11.64,11.63-11.64H513.15c7,0,11.64,4.65,11.64,11.64V342.94c0,7-4.66,11.63-11.64,11.63H233.88c-7,0-11.64,4.66-11.64,11.64s4.66,11.64,11.64,11.64h23.27v34.9c0,7-4.65,11.64-11.64,11.64H233.88c-7,0-11.64,4.66-11.64,11.64s4.66,11.63,11.64,11.63H396.79c7,0,11.63-4.65,11.63-11.63s-4.65-11.64-11.63-11.64H385.15c-7,0-11.63-4.65-11.63-11.64v-34.9H513.15c19.78,0,34.91-15.13,34.91-34.91V63.67C548.06,43.88,532.93,28.75,513.15,28.75ZM278.06,424.39a34.55,34.55,0,0,0,2.32-11.63V377.85H350.2v34.91a34.56,34.56,0,0,0,2.33,11.63Z"/><path class="cls-2" d="M489.88,284.76h-256c-7,0-11.64,4.65-11.64,11.63S226.9,308,233.88,308h256c7,0,11.63-4.66,11.63-11.64S496.86,284.76,489.88,284.76Z"/><path class="cls-3" d="M164.06,214.94H71c-19.78,0-34.91,15.12-34.91,34.91v162.9c0,19.79,15.13,34.91,34.91,34.91h93.09c19.78,0,34.91-15.12,34.91-34.91V249.85C199,230.06,183.84,214.94,164.06,214.94ZM175.7,412.76c0,7-4.66,11.63-11.64,11.63H71c-7,0-11.64-4.65-11.64-11.63V249.85c0-7,4.66-11.64,11.64-11.64h93.09c7,0,11.64,4.65,11.64,11.64Z"/></g></g></svg>