<svg id="Layer_1" data-name="Layer 1" xmlns="http://www.w3.org/2000/svg" viewBox="0 0 750.41 980.51"><defs><style>.cls-1{fill:#fff;stroke:#000;stroke-miterlimit:10;}.cls-2{fill:#0093d1;}</style></defs><title>airdrop</title><path class="cls-1" d="M479,13.38c-48.8,16.13-85.55,92.29-106.58,220.31-8,49-15.31,124.55-15.31,159.05v14.9H483.66V585.28h42.88V407.64H655.78l-1.22-34.3c-.82-18.78-3.27-52.06-5.51-73.91-11.84-115.36-33.49-194.58-66.36-244.19C569.83,36.05,557.17,24,542.06,16.65,527.16,9.5,495.92,7.66,479,13.38Z" transform="translate(-124.79 -9.5)"/><path class="cls-2" d="M374.43,34.82C283,72.59,209.25,142.22,163.11,234.5c-21.64,43.69-32.46,81.47-37,128-2,21-1.84,24.91,1,31,5.72,12.05,8.58,12.86,49.21,14.09l37,1,84.12,88.82,84.12,88.82-32.67,1c-32.26,1-32.67,1-38.18,6.74L305,599.58l-.61,185.8c-.61,204.38-1,194.38,11.84,201.11,9,4.7,368.74,4.7,377.72,0,13.07-6.74,12.25,6.33,12.25-197.64,0-197.85.2-194-9.6-198.66-2-1-17.15-2.25-33.69-2.86l-30-1,86.78-88.82,87-88.82,26.75-1c29.81-1.23,34.1-2.65,39.41-14.09,2.86-6.13,3.06-10,1-31.44-4.29-45.74-14.5-81.26-35.73-125C796.67,151.61,729.29,84,646,43.8c-11.23-5.31-21-9.8-22-9.8-.82,0,1,3.88,4.08,8.58,14.5,23.07,32.26,69.83,43.08,113.93C687,220.62,695.19,281.87,701.32,385.6l1.23,21.85,21,.61,21.23.61-87,88.82c-71.66,73.3-87.79,89-92.9,89.43l-6.13.61,4.49,3.27c9.8,6.94,10.21,10.41,10.21,107.8,0,97.6-.41,100.86-10.41,108-4.08,2.86-12.25,3.27-58.6,3.27h-53.9L444.67,804,438.75,798V599.17l5.92-5.72c5.31-5.51,5.51-5.92,1.84-6.53-2.25-.41-42.06-40.63-88.2-89.43L274,408.67l18.58-1,18.58-1,1.43-34.71C316.86,267,335.23,160.6,360.14,95.06c7.55-19.8,23.48-52.47,30-61.46,2-3.27,3.27-5.72,2.25-5.72C391.58,28.08,383.42,31.14,374.43,34.82Z" transform="translate(-124.79 -9.5)"/></svg>