<svg id="svg2" xmlns="http://www.w3.org/2000/svg" viewBox="0 0 283.31 260.61"><defs><style>.cls-1,.cls-2{fill:#7f58bd;}.cls-2{font-size:321px;stroke:#000;stroke-miterlimit:10;font-family:MyriadPro-Regular, Myriad Pro;}.cls-3,.cls-4,.cls-5,.cls-6{font-size:114px;}.cls-4{letter-spacing:0em;}.cls-5{letter-spacing:0em;}.cls-6{letter-spacing:0.01em;}</style></defs><title>Company_logo</title><g id="layer1"><path class="cls-1" d="M239.81,243.17c-17.54,3.17-35.8,3.65-53.3-.45a101.91,101.91,0,0,1-25.09-9.44,108,108,0,0,1-21.83-15.56c-13.25-12.09-23.62-27-31.94-42.72a289.07,289.07,0,0,1-20-49.48c-5.26-17-9.38-34.34-12.91-51.76s-6.42-35-9.54-52.42L64,14.81l-.64-3.26c-.45-.45,3.31,0,1.67.18l-.09.79-.14,1.64c-.34,4.41-.59,8.84-.85,13.27L62.5,54l-2.75,53.19c-1.84,35.46-3.63,70.93-5.83,106.38-.57,8.86-1.14,17.72-1.93,26.59-.22,2.22-.41,4.42-.78,6.69-.06.29-.11.57-.2.9,1.17.69-2.54,1-2.13.08a11.93,11.93,0,0,1-.3-1.79c-.14-1.13-.23-2.24-.31-3.35-.33-4.45-.53-8.89-.72-13.33-.74-17.75-1.2-35.5-1.67-53.25l-2.5-106.5L42.71,43c-.26-8.87-.49-17.75-.92-26.6-.06-1.1-.12-2.2-.21-3.29a15.41,15.41,0,0,0-.17-1.54c-.24.1,2.79-.2,1.45.24,0,.25-.06.51-.09.78-.17,2.17-.25,4.4-.34,6.61-.17,4.43-.29,8.86-.4,13.3l-.56,26.62L39.79,165.64c-.29,17.75-.57,35.51-1,53.26-.22,8.89-.36,17.74-.85,26.66,0,.56-.08,1.11-.14,1.7-.71.26,1.44.63-1.74,1a3.39,3.39,0,0,1-.25-1.14c-.11-1.15-.16-2.25-.21-3.37q-.14-3.35-.22-6.67l-.26-13.32c-.51-35.52-.69-71-1-106.53L33.75,64l-.32-26.63-.25-13.31L33,17.41l-.14-3.31-.11-1.64c0-.27,0-.54-.09-.78-1.12,0,1.81-.08,1.3,0-.23,2.07-.26,4.36-.34,6.55l-.16,6.65-.2,13.31L33,64.78,32.75,118c-.16,35.51-.22,71-.55,106.54L32,237.9c0,2.22-.08,4.44-.16,6.67l-.08,1.67-.05.85a5,5,0,0,1-.15,1c-3-.17-.93-.66-1.6-.89l-.06-.85-.08-1.68c-.27-8.89-.31-17.76-.4-26.65l-.27-53.26L28.8,58.25l-.2-26.63-.21-13.3c-.06-2.21-.09-4.46-.26-6.6-1.17-.27,1.5-.45,1.19-.16,0,.23-.05.51-.07.78L29.17,14l-.09,3.32c-.32,17.73-.3,35.5-.35,53.25l-.07,106.53c0,17.75,0,35.51-.2,53.27-.05,4.44-.09,8.87-.21,13.32,0,1.12-.07,2.22-.15,3.36A7.44,7.44,0,0,1,28,248c-2.69.29-.88-.59-1.47-.69-.05-.57-.08-1.13-.1-1.69-.1-2.23-.15-4.45-.19-6.67-.17-8.88-.23-17.76-.3-26.64-.22-35.51-.24-71-.27-106.53l0-53.27-.05-26.63c0-4.43,0-8.88-.08-13.3l0-.83c-1.08-.26,1.45-.68,1.17-.23l0,1.65-.05,3.32-.07,6.66-.55,106.52L25.5,236.16l0,6.66,0,3.33,0,1.68c-2.32.11-.66-.46-1.18-.65v-.83L24.16,233l-.07-26.64L24,153.13,23.69,46.6,23.58,20l-.06-6.65,0-1.66c-.94-.32,1.26-.6,1-.14l0,.82,0,3.33L24.4,29l-.13,53.27-.2,106.52L23.86,242l0,3.33,0,1.67c0,.29,0,.54,0,.88-2-.13-.58-.54-1-.78l-.1-6.67-.1-13.31-.14-26.64L22,94l-.2-53.26L21.61,14.1l0-1.66,0-.83c-.79-.38,1.06-.48.86,0l-.05,3.32-.06,6.66-.08,13.31-.76,213.06h-.83L20.08,11.16h.74L19.5,247.91h-.66L18.18,11.16h.57L18,247.91h-.49L16.84,11.16h.41l-.74,236.75h-.33L15.51,11.16h.25l-.71,236.75h-.16l-1-236.75H14l0,236.75,0-236.75H14l1.1,236.75h-.16l.62-236.75h.25l.75,236.75h-.33l.66-236.75h.41L18,247.91h-.49l.67-236.75h.57l.75,236.75h-.66L20.08,11.16h.74l.66,236.75h-.83l.69-213.06.08-13.32.06-6.66.05-3.33c-.2-.52,1.76-.4.95.05l0,.83,0,1.67.17,26.64L22.92,94l.43,106.53.15,26.63.1,13.31.1,6.65c-.42.23,1,.65-.93.7,0-.22,0-.53,0-.79l0-1.66,0-3.33.19-53.26.17-106.53L23.34,29l.06-13.32,0-3.33,0-.84c-.23-.53,2.07-.2,1.11.14l0,1.67L24.65,20l.12,26.64.31,106.53.14,53.26L25.31,233l.06,13.32v.83c-.5.19,1.15.73-1.12.62l0-1.65,0-3.33,0-6.65.41-106.53L25.26,23.1l.07-6.66.05-3.33,0-1.69c-.25-.58,2.4,0,1.29.26l0,.84c.07,4.44.07,8.88.09,13.32l.05,26.63.05,53.27c0,35.51.08,71,.31,106.52.07,8.88.14,17.76.31,26.62,0,2.22.09,4.44.19,6.64,0,.55.05,1.1.1,1.64-.51.25,1.25.58-1.12.49,0-.15.06-.46.08-.72.07-1.08.11-2.19.14-3.3.12-4.42.16-8.86.21-13.3.15-17.75.16-35.5.18-53.26l0-106.53c0-17.75,0-35.5.33-53.27l.1-3.34.08-1.68c0-.29,0-.56.08-.88-.26-.71,2.8-.11,1.58.2.18,2.29.21,4.48.27,6.71L30,31.61l.21,26.63.4,106.53L30.9,218c.09,8.87.13,17.76.41,26.61l.08,1.65.05.81c-.58.22,1.4.64-1.26.51,0,0,.05-.41.06-.63l.05-.82.08-1.65c.08-2.21.12-4.42.16-6.64l.18-13.31c.32-35.5.37-71,.51-106.52l.26-53.27.23-26.63.19-13.32.16-6.67c.09-2.24.1-4.4.36-6.74-.49-.86,2.94-.75,1.79,0,0,.31.07.59.09.88L34.42,14l.14,3.34L34.75,24,35,37.34,35.33,64l.46,53.27c.29,35.5.48,71,1,106.51l.26,13.31c.06,2.21.12,4.43.22,6.64,0,1.1.1,2.21.2,3.27,0,.18.13.7,0,.49-2.8.28-.71-.2-1.31-.4.06-.52.1-1.07.13-1.61.48-8.82.62-17.72.84-26.58.38-17.75.66-35.5.94-53.25L39.76,59.1l.55-26.64c.11-4.43.23-8.87.4-13.32.08-2.22.16-4.43.35-6.69q0-.42.09-.87c-1.37.05,2-1.48,1.94-.37A15.37,15.37,0,0,1,43.3,13c.09,1.12.15,2.23.21,3.34.44,8.89.67,17.76.93,26.64l.69,26.63,2.53,106.49c.48,17.75,1,35.5,1.69,53.23.19,4.42.4,8.86.72,13.26.08,1.1.17,2.2.3,3.28a10.72,10.72,0,0,0,.25,1.49c.49-.08-2.54,0-1.35-.07.06-.21.11-.47.16-.72.35-2.11.55-4.35.76-6.54.78-8.82,1.35-17.68,1.91-26.53,2.19-35.44,4-70.9,5.8-106.36l2.73-53.2,1.44-26.6c.26-4.43.51-8.86.85-13.31l.14-1.67.1-.86c-1.65-.31,2.42-.87,2-.3l.65,3.27L67.08,21c3.13,17.49,6,35,9.55,52.37S84.27,108,89.51,125a287.27,287.27,0,0,0,19.86,49.14c8.25,15.6,18.51,30.29,31.54,42.18a106.2,106.2,0,0,0,21.44,15.27A99.91,99.91,0,0,0,187,240.79c17.17,4,35.16,3.56,52.49.41Z"/></g><text class="cls-2" transform="translate(96.89 244.53)">C<tspan class="cls-3" x="186.18" y="0">o</tspan><tspan class="cls-4" x="248.76" y="0">n</tspan><tspan class="cls-3" x="311.57" y="0">t</tspan><tspan class="cls-5" x="349.31" y="0">r</tspan><tspan class="cls-3" x="386.02" y="0">a</tspan><tspan class="cls-6" x="440.96" y="0">c</tspan><tspan class="cls-3" x="493.52" y="0">tible </tspan></text></svg>