<svg id="Capa_1" data-name="Capa 1" xmlns="http://www.w3.org/2000/svg" viewBox="0 0 512 418.91"><defs><style>.cls-1{fill:#f4d00c;}.cls-2{fill:#0093d1;}</style></defs><title>responsive</title><circle class="cls-1" cx="279.27" cy="302.55" r="11.64"/><circle class="cls-2" cx="81.46" cy="372.36" r="11.64"/><path class="cls-1" d="M477.09,46.54H81.46c-19.79,0-34.91,15.13-34.91,34.91V197.82c0,7,4.65,11.63,11.63,11.63s11.64-4.65,11.64-11.63V81.46c0-7,4.65-11.64,11.63-11.64H477.09c7,0,11.64,4.65,11.64,11.64V360.73c0,7-4.66,11.63-11.64,11.63H197.82c-7,0-11.64,4.66-11.64,11.64s4.66,11.64,11.64,11.64h23.27v34.9c0,7-4.65,11.64-11.64,11.64H197.82c-7,0-11.64,4.66-11.64,11.64s4.66,11.63,11.64,11.63H360.73c7,0,11.63-4.65,11.63-11.63s-4.65-11.64-11.63-11.64H349.09c-7,0-11.63-4.65-11.63-11.64v-34.9H477.09c19.78,0,34.91-15.13,34.91-34.91V81.46C512,61.67,496.87,46.54,477.09,46.54ZM242,442.18a34.5,34.5,0,0,0,2.32-11.63V395.64h69.82v34.91a34.49,34.49,0,0,0,2.33,11.63Z" transform="translate(0 -46.54)"/><path class="cls-1" d="M453.82,302.55h-256c-7,0-11.64,4.65-11.64,11.63s4.66,11.64,11.64,11.64h256c7,0,11.63-4.66,11.63-11.64S460.8,302.55,453.82,302.55Z" transform="translate(0 -46.54)"/><path class="cls-2" d="M128,232.73H34.91C15.13,232.73,0,247.85,0,267.64v162.9c0,19.79,15.13,34.91,34.91,34.91H128c19.78,0,34.91-15.12,34.91-34.91V267.64C162.91,247.85,147.78,232.73,128,232.73Zm11.64,197.82c0,7-4.66,11.63-11.64,11.63H34.91c-7,0-11.64-4.65-11.64-11.63V267.64c0-7,4.66-11.64,11.64-11.64H128c7,0,11.64,4.65,11.64,11.64Z" transform="translate(0 -46.54)"/></svg>