<?xml version="1.0" encoding="utf-8"?>
<!-- Generator: Adobe Illustrator 22.0.0, SVG Export Plug-In . SVG Version: 6.00 Build 0)  -->
<svg version="1.1"
	 id="svg2" inkscape:output_extension="org.inkscape.output.svg.inkscape" inkscape:version="0.46+pre4" sodipodi:docname="signed-document-contract.svg" sodipodi:version="0.32" xmlns:cc="http://creativecommons.org/ns#" xmlns:dc="http://purl.org/dc/elements/1.1/" xmlns:inkscape="http://www.inkscape.org/namespaces/inkscape" xmlns:rdf="http://www.w3.org/1999/02/22-rdf-syntax-ns#" xmlns:sodipodi="http://sodipodi.sourceforge.net/DTD/sodipodi-0.dtd" xmlns:svg="http://www.w3.org/2000/svg"
	 xmlns="http://www.w3.org/2000/svg" xmlns:xlink="http://www.w3.org/1999/xlink" x="0px" y="0px" viewBox="0 0 337 428.1"
	 style="enable-background:new 0 0 337 428.1;" xml:space="preserve">
<style type="text/css">
	.st0{fill:#0093D1;stroke:#000000;}
</style>
<defs>
	
	
		<inkscape:perspective  id="perspective10" inkscape:persp3d-origin="372.04724 : 350.78739 : 1" inkscape:vp_x="0 : 526.18109 : 1" inkscape:vp_y="0 : 1000 : 0" inkscape:vp_z="744.09448 : 526.18109 : 1" sodipodi:type="inkscape:persp3d">
		</inkscape:perspective>
</defs>
<sodipodi:namedview  bordercolor="#666666" borderopacity="1.0" gridtolerance="10000" guidetolerance="10" id="base" inkscape:current-layer="layer1" inkscape:cx="421.07072" inkscape:cy="203.67929" inkscape:document-units="px" inkscape:pageopacity="0.0" inkscape:pageshadow="2" inkscape:window-height="1001" inkscape:window-width="1680" inkscape:window-x="-4" inkscape:window-y="-4" inkscape:zoom="0.98994949" objecttolerance="10" pagecolor="#ffffff" showgrid="false">
	</sodipodi:namedview>
<g id="layer1" transform="translate(-212.081,-353.29075)" inkscape:groupmode="layer" inkscape:label="Layer 1">
	<path id="path2383" sodipodi:nodetypes="cczzccczzcczzczzc" class="st0" d="M541.4,780.9l-324.3-2.9c0,0,16.9-84.5,14.3-122.9
		c-2.6-38.4-16.5-86-18.6-128.6c-2.1-42.6,8.6-150,8.6-150l312.9-22.9l-307,30.9c0,0-5.8,97.6-3.9,139.4
		c1.9,41.9,14.3,97.9,16,135.4s-14.1,110.1-14.1,110.1l305.5,1.4c0,0,9.2-54.8,9.6-94.3c0.4-39.5-13.9-120.2-13.9-167.9
		c0-47.7,7.8-152.3,7.8-152.3s-1.6,104.6-0.3,152.2c1.3,47.6,14.4,126.9,14.7,167.8S541.4,780.9,541.4,780.9z"/>
</g>
</svg>
