<svg id="svg2" xmlns="http://www.w3.org/2000/svg" viewBox="0 0 975.96 525.86"><defs><style>.cls-1{fill:none;stroke-width:2px;}.cls-1,.cls-3{stroke:#000;}.cls-2,.cls-3{fill:#7f58bd;}.cls-3{font-size:321px;stroke-miterlimit:10;font-family:MyriadPro-Regular, Myriad Pro;}.cls-4,.cls-5,.cls-6,.cls-7{font-size:114px;}.cls-5{letter-spacing:0em;}.cls-6{letter-spacing:0em;}.cls-7{letter-spacing:0.01em;}</style></defs><title>Sin_x^-1_edited</title><g id="layer1"><path id="path3384" class="cls-1" d="M42.45,359.9" transform="translate(-35.24 -24.51)"/><path id="path3384-2" data-name="path3384" class="cls-1" d="M42.45,25.63" transform="translate(-35.24 -24.51)"/><path id="path3388" class="cls-1" d="M2.93,201.88" transform="translate(-35.24 -24.51)"/><path id="path3388-2" data-name="path3388" class="cls-1" d="M262.4,180" transform="translate(-35.24 -24.51)"/><path class="cls-2" d="M261.18,292.32c-17.53,3.18-35.8,3.66-53.3-.44a101.94,101.94,0,0,1-25.09-9.45A107.87,107.87,0,0,1,161,266.88c-13.25-12.1-23.62-27-31.94-42.72a289.17,289.17,0,0,1-20-49.49c-5.26-17-9.37-34.33-12.91-51.75S89.71,88,86.59,70.5L85.37,64l-.64-3.26c-.45-.44,3.31,0,1.67.18l-.08.8-.15,1.64c-.33,4.4-.59,8.84-.85,13.27l-1.45,26.58-2.75,53.2c-1.84,35.46-3.63,70.92-5.83,106.38-.57,8.86-1.14,17.72-1.93,26.58-.21,2.23-.4,4.42-.78,6.69,0,.29-.11.58-.2.91,1.17.68-2.54,1-2.12.08a11,11,0,0,1-.31-1.79c-.13-1.13-.22-2.24-.31-3.36-.32-4.45-.52-8.88-.72-13.32-.73-17.75-1.2-35.5-1.67-53.25l-2.5-106.51-.67-26.62c-.26-8.87-.49-17.75-.92-26.59-.06-1.1-.12-2.21-.21-3.3a15.41,15.41,0,0,0-.17-1.54c-.24.1,2.79-.19,1.45.24,0,.25-.06.52-.08.79-.18,2.17-.26,4.4-.35,6.6-.17,4.43-.29,8.87-.4,13.3l-.56,26.62L61.16,214.8q-.42,26.63-.95,53.26c-.22,8.88-.37,17.74-.86,26.65,0,.56-.07,1.12-.14,1.7-.71.27,1.45.64-1.74,1a3.39,3.39,0,0,1-.25-1.14c-.11-1.15-.15-2.26-.21-3.37q-.13-3.35-.21-6.67l-.27-13.33c-.51-35.51-.69-71-1-106.53l-.44-53.26L54.8,86.52l-.24-13.31-.19-6.65-.14-3.31-.11-1.64c0-.26,0-.53-.08-.77-1.13-.05,1.8-.08,1.3,0-.23,2.06-.27,4.35-.35,6.54L54.83,74l-.2,13.31-.24,26.63-.27,53.26c-.16,35.51-.22,71-.55,106.53l-.18,13.32c0,2.22-.09,4.45-.17,6.67l-.08,1.68,0,.85a5,5,0,0,1-.15,1c-3-.17-.93-.66-1.6-.88l-.06-.85-.07-1.68c-.28-8.9-.32-17.77-.41-26.65l-.27-53.27-.36-106.52L50,80.78l-.2-13.31c-.07-2.2-.09-4.46-.27-6.59-1.17-.27,1.51-.45,1.19-.17,0,.24,0,.52-.06.78l-.08,1.65-.1,3.31c-.31,17.74-.3,35.5-.35,53.25L50,226.23c0,17.76,0,35.51-.21,53.27,0,4.44-.09,8.88-.21,13.33,0,1.11-.07,2.22-.15,3.35a6.19,6.19,0,0,1-.11.94c-2.69.28-.88-.6-1.47-.69,0-.58-.07-1.13-.1-1.69-.1-2.23-.14-4.45-.19-6.67-.17-8.89-.23-17.76-.3-26.64-.22-35.52-.23-71-.27-106.54l0-53.26L47,75c0-4.44,0-8.88-.09-13.31l0-.82c-1.08-.26,1.45-.68,1.17-.23l0,1.64,0,3.33-.07,6.65-.55,106.53-.44,106.53,0,6.66,0,3.33,0,1.68c-2.32.11-.66-.47-1.17-.65v-.84l-.07-13.32-.07-26.63-.12-53.26L45.06,95.76,45,69.13l-.06-6.66,0-1.65c-.95-.33,1.25-.61,1-.15l0,.83,0,3.32-.07,13.32-.13,53.26-.2,106.53-.21,53.27,0,3.33,0,1.67c0,.29,0,.54,0,.87-2-.13-.58-.53-1-.77l-.1-6.67-.1-13.32-.14-26.63-.39-106.53-.21-53.26L43,63.26l0-1.66v-.83c-.8-.39,1-.49.85-.05l0,3.32-.06,6.65L43.61,84l-.76,213.05H42L41.45,60.32h.74L40.87,297.07h-.66L39.55,60.32h.57l-.75,236.74h-.49L38.22,60.32h.41l-.75,236.74h-.33L36.88,60.32h.25l-.7,236.74h-.17l-1-236.74h.08l0,236.74,0-236.74h.08l1.11,236.74h-.17l.62-236.74h.25l.75,236.74h-.33l.67-236.75h.41l.74,236.75h-.49l.67-236.75h.57l.75,236.75h-.66L41.45,60.31h.74l.66,236.75H42L42.71,84l.08-13.31L42.85,64l0-3.34c-.2-.51,1.76-.4,1,.05l0,.84,0,1.67.17,26.63.23,53.27.43,106.52.15,26.64.1,13.31.1,6.65c-.42.23,1,.65-.92.69,0-.21,0-.52,0-.79l0-1.66,0-3.32.2-53.26L44.6,131.4l.11-53.27.06-13.31,0-3.34,0-.84c-.23-.52,2.07-.2,1.11.15l0,1.67L46,69.12l.12,26.63.31,106.53.14,53.27.09,26.63.07,13.31v.83c-.51.2,1.14.74-1.13.63l0-1.65,0-3.33,0-6.66.4-106.53.51-106.53.07-6.66,0-3.33,0-1.68c-.25-.58,2.4,0,1.3.25l0,.84c.06,4.45.06,8.88.08,13.33l.05,26.63.06,53.26c0,35.51.07,71,.31,106.53.06,8.87.13,17.75.3,26.62.05,2.22.09,4.43.19,6.64,0,.55,0,1.1.1,1.63-.51.25,1.25.58-1.12.5a5.61,5.61,0,0,0,.08-.72c.08-1.08.11-2.2.14-3.3.12-4.43.17-8.87.21-13.3.15-17.75.17-35.51.19-53.26l0-106.53c.05-17.76,0-35.51.34-53.28l.09-3.33.08-1.69c0-.28,0-.56.08-.87-.26-.71,2.8-.12,1.58.2.19,2.29.21,4.48.27,6.71l.21,13.32.22,26.64L52,213.93l.29,53.26c.09,8.87.14,17.76.41,26.61l.08,1.64.05.81c-.58.22,1.41.64-1.26.51,0,0,.05-.4.06-.63l.06-.81.07-1.65c.08-2.21.12-4.43.17-6.64l.17-13.31c.32-35.51.37-71,.52-106.53l.25-53.26.23-26.64L53.28,74l.15-6.66c.09-2.25.1-4.4.37-6.75-.49-.86,2.93-.74,1.78,0,.05.31.07.6.1.88l.11,1.69.14,3.34.19,6.66.25,13.32.33,26.64.46,53.26c.29,35.51.48,71,1,106.52l.26,13.3c.06,2.22.13,4.44.22,6.64.05,1.1.1,2.22.21,3.28,0,.18.12.7,0,.49-2.81.27-.72-.21-1.32-.4.06-.52.1-1.07.13-1.62.49-8.81.63-17.71.84-26.58.38-17.74.66-35.5.94-53.25l1.65-106.52.54-26.63c.11-4.44.23-8.88.4-13.32.09-2.23.17-4.44.35-6.69,0-.29,0-.57.09-.87-1.37,0,2-1.49,1.94-.37a15.47,15.47,0,0,1,.21,1.76c.09,1.12.16,2.24.21,3.35.44,8.89.67,17.76.93,26.64l.69,26.62L69,225.24c.48,17.74,1,35.49,1.69,53.22.2,4.43.4,8.86.72,13.27.08,1.1.18,2.2.3,3.27a12.64,12.64,0,0,0,.25,1.5c.5-.09-2.54,0-1.35-.08.06-.2.11-.46.16-.72.35-2.11.55-4.34.76-6.53.79-8.82,1.35-17.68,1.91-26.54,2.19-35.43,4-70.9,5.8-106.36L82,103.08l1.44-26.6c.26-4.44.51-8.87.85-13.31l.15-1.68.09-.86c-1.64-.31,2.43-.86,2.06-.3l.64,3.28,1.22,6.55c3.14,17.49,6,35,9.55,52.38s7.65,34.64,12.88,51.56a287.37,287.37,0,0,0,19.86,49.15c8.25,15.59,18.51,30.29,31.54,42.18a106.54,106.54,0,0,0,21.44,15.26A100.34,100.34,0,0,0,208.33,290c17.17,4,35.16,3.55,52.49.41Z" transform="translate(-35.24 -24.51)"/></g><text class="cls-3" transform="translate(83.02 269.18)">C<tspan class="cls-4" x="186.18" y="0">o</tspan><tspan class="cls-5" x="248.76" y="0">n</tspan><tspan class="cls-4" x="311.57" y="0">t</tspan><tspan class="cls-6" x="349.31" y="0">r</tspan><tspan class="cls-4" x="386.02" y="0">a</tspan><tspan class="cls-7" x="440.96" y="0">c</tspan><tspan class="cls-4" x="493.52" y="0">tible </tspan></text></svg>